<svg width="180" height="40" viewBox="0 0 180 40" fill="none" xmlns="http://www.w3.org/2000/svg">
  <rect x="2" y="6" width="28" height="28" rx="8" fill="#2563EB"/>
  <path d="M10 27V13H13.2L21 22.3V13H24V27H20.8L13 17.7V27H10Z" fill="white"/>
  <path d="M42.3 28V12.7H45.5V28H42.3ZM48.6 28V16.9H51.7L51.8 18.5C52.5 17.4 53.8 16.6 55.6 16.6C58.5 16.6 60.1 18.5 60.1 21.7V28H56.9V22.4C56.9 20.5 56.1 19.4 54.3 19.4C52.6 19.4 51.8 20.6 51.8 22.3V28H48.6Z" fill="#0F172A"/>
  <path d="M67.4 28.3C64.2 28.3 61.9 26.1 61.9 22.4C61.9 18.8 64.2 16.6 67.4 16.6C70.7 16.6 72.9 18.8 72.9 22.4C72.9 26.1 70.7 28.3 67.4 28.3ZM67.4 25.5C68.9 25.5 69.8 24.3 69.8 22.4C69.8 20.6 68.9 19.4 67.4 19.4C66 19.4 65 20.6 65 22.4C65 24.3 66 25.5 67.4 25.5Z" fill="#0F172A"/>
  <path d="M74.8 28V16.9H77.9L78 18.7C78.7 17.4 79.8 16.7 81.3 16.7C81.7 16.7 82 16.7 82.2 16.8V19.7C81.9 19.6 81.5 19.5 81 19.5C79.3 19.5 78 20.6 78 22.8V28H74.8Z" fill="#0F172A"/>
  <path d="M88.4 28.3C85.3 28.3 83.1 26.1 83.1 22.4C83.1 18.8 85.3 16.6 88.3 16.6C90 16.6 91.2 17.2 92 18.2L92.1 16.9H95.2V27.6C95.2 31.2 92.8 33.1 89.3 33.1C86.5 33.1 84.5 31.9 83.8 29.8H87C87.4 30.6 88.2 31 89.3 31C91.1 31 92.1 30 92.1 28V26.7C91.2 27.7 90 28.3 88.4 28.3ZM89.2 25.5C90.8 25.5 92 24.2 92 22.4C92 20.7 90.8 19.4 89.2 19.4C87.7 19.4 86.4 20.7 86.4 22.4C86.4 24.2 87.7 25.5 89.2 25.5Z" fill="#0F172A"/>
  <path d="M102.5 28.3C99.1 28.3 96.8 26.1 96.8 22.5C96.8 18.9 99.1 16.6 102.3 16.6C105.6 16.6 107.7 18.9 107.7 22.4C107.7 22.8 107.7 23.1 107.6 23.4H100C100.3 24.9 101.3 25.8 102.8 25.8C103.9 25.8 104.7 25.4 105.2 24.6H107.9C107.1 27 105 28.3 102.5 28.3ZM100.1 21.3H104.6C104.4 20 103.4 19.1 102.2 19.1C100.9 19.1 100.1 19.9 100.1 21.3Z" fill="#0F172A"/>
  <path d="M109.7 28V16.9H112.8L112.9 18.5C113.6 17.4 114.9 16.6 116.7 16.6C119.6 16.6 121.2 18.5 121.2 21.7V28H118V22.4C118 20.5 117.2 19.4 115.4 19.4C113.7 19.4 112.9 20.6 112.9 22.3V28H109.7Z" fill="#0F172A"/>
  <path d="M128.4 28.3C125.1 28.3 122.8 26.1 122.8 22.4C122.8 18.8 125.1 16.6 128.4 16.6C131.2 16.6 133.3 18.2 133.8 20.8H130.8C130.4 19.8 129.6 19.3 128.4 19.3C126.9 19.3 125.9 20.5 125.9 22.4C125.9 24.3 126.9 25.5 128.4 25.5C129.7 25.5 130.5 24.8 130.9 23.8H133.9C133.3 26.6 131.1 28.3 128.4 28.3Z" fill="#0F172A"/>
  <path d="M140 28.3C136.6 28.3 134.3 26.1 134.3 22.5C134.3 18.9 136.6 16.6 139.8 16.6C143.1 16.6 145.2 18.9 145.2 22.4C145.2 22.8 145.2 23.1 145.1 23.4H137.5C137.8 24.9 138.8 25.8 140.3 25.8C141.4 25.8 142.2 25.4 142.7 24.6H145.4C144.6 27 142.5 28.3 140 28.3ZM137.6 21.3H142.1C141.9 20 140.9 19.1 139.7 19.1C138.4 19.1 137.6 19.9 137.6 21.3Z" fill="#0F172A"/>
  <path d="M151.6 28.3C148.9 28.3 147 27 146.7 24.8H149.7C149.9 25.6 150.6 26.1 151.7 26.1C152.8 26.1 153.4 25.7 153.4 25C153.4 24.2 152.6 24 151 23.7C148.8 23.3 147.1 22.5 147.1 20.1C147.1 17.9 149 16.6 151.6 16.6C154.2 16.6 155.9 17.8 156.2 20H153.3C153.1 19.2 152.5 18.8 151.5 18.8C150.6 18.8 150 19.2 150 19.8C150 20.5 150.7 20.7 152.1 21C154.5 21.4 156.4 22.1 156.4 24.7C156.4 27 154.4 28.3 151.6 28.3Z" fill="#0F172A"/>
</svg>
