<svg xmlns="http://www.w3.org/2000/svg" viewBox="0 0 400 400" width="400" height="400">

<path d="M132.48353610068457 46.2240706413769 C144.61620571227155 36.92825268652409, 162.1670607569476 32.96395698907362, 177.5039747571922 30.577914983218193 C192.8408887574368 28.191872977362763, 208.83220068543096 29.365386379779125, 224.50502010215217 31.90781860624432 C240.17783951887338 34.450250832709514, 257.3766155806378 38.72274267894772, 271.5408912575194 45.83250834200936 C285.70516693440095 52.942274005071006, 298.19908141361094 62.84410344223414, 309.49067416344144 74.56641258461417 C320.78226691327194 86.2887217269942, 331.5195157898486 101.4463717509441, 339.29044775650243 116.16636319628951 C347.0613797231563 130.8863546416349, 353.08290226309566 146.47742329594482, 356.1162659633645 162.88636125668665 C359.1496296636334 179.2952992174285, 358.7946937257666 198.03400482896632, 357.4906299581157 214.6199909607405 C356.18656619046476 231.20597709251467, 353.7645568920005 246.84935866853078, 348.29188335745914 262.4022780473318 C342.8192098229178 277.95519742613277, 334.74346418550476 294.81835248180806, 324.6545887508677 307.93750723354646 C314.5657133162306 321.05666198528485, 300.94861589546815 331.5245610553372, 287.75863074963667 341.1172065577622 C274.5686456038052 350.7098520601872, 260.2806422367519 360.23357332478037, 245.51467787587887 365.4933802480964 C230.74871351500587 370.75318717141243, 214.94710635379653 372.81979896782514, 199.16284458439864 372.67604809765834 C183.37858281500075 372.53229722749154, 166.01465488002387 370.0999577200003, 150.80910725949147 364.6308750270957 C135.60355963895907 359.16179233419115, 120.41850264233196 349.554726222755, 107.92955886120428 339.8615519402308 C95.44061508007661 330.1683776577066, 85.46172914872679 319.42995490721995, 75.87544457272539 306.47182933195046 C66.28915999672398 293.51370375668097, 56.33776976491208 277.7195681479012, 50.41185140519582 262.1127984886139 C44.485933045479555 246.50602882932665, 41.207423535756526 229.54277388124444, 40.31993441442782 212.83121137622686 C39.432445293099114 196.11964887120928, 41.35685556441869 178.43759995187025, 45.08691667722357 161.8434234585085 C48.81697779002845 145.24924696514677, 54.95587514002216 128.10020918672296, 62.7003010912571 113.26615241605634 C70.44472704249205 98.43209564538972, 72.90785121511585 86.4675202152665, 91.55347238463324 72.83908283450882 C110.19909355415062 59.21064545375112, 153.30088557138652 37.99193671390348, 174.57402810836138 31.495528131510184 C195.84717064533623 24.999119549116887, 218.8937795055952 31.3549985716362, 219.19232760648242 33.86063134014904 M176.53105551250837 31.10116117346476 C190.5250271606128 26.47105036067394, 207.26468323998688 28.35878410769742, 222.37096063579344 30.89360490524237 C237.4772380316 33.428425702787315, 252.95817634639204 38.792860412222915, 267.16871988734766 46.31008595873445 C281.37926342830326 53.82731150524598, 296.0602449172671 64.30701833252814, 307.6342218815272 75.99695818431155 C319.2081988457873 87.68689803609496, 328.87150133894926 102.35694937112855, 336.6125816729083 116.44972506943493 C344.3536620068673 130.5425007677413, 350.1715089913982 144.25986527777866, 354.08070388528125 160.55361237414982 C357.9898987791643 176.84735947052098, 361.16806555056496 197.0484636695879, 360.0677510362067 214.21220764766193 C358.9674365218484 231.37595162573595, 353.105157869976 248.39512180578808, 347.47881679913155 263.53607624259394 C341.8524757282871 278.6770306793998, 336.01444277727364 292.32418043799646, 326.3097046111402 305.0579342684971 C316.60496644500677 317.7916880989977, 302.8545688111665 330.1767951864572, 289.2503878023308 339.9385992255977 C275.64620679349514 349.70040326473827, 259.5426197488876 358.04260475679126, 244.68461855812618 363.62875850334035 C229.82661736736475 369.21491224988944, 215.1415462265889 373.6254137811292, 200.10238065776227 373.45552170489213 C185.06321508893564 373.28562962865504, 169.72580512560666 368.0159511576952, 154.4496251451663 362.6094060459178 C139.17344516472593 357.2028609341404, 121.70380545259005 350.3530215126683, 108.44530077512012 341.0162510342278 C95.18679609765019 331.67948055578734, 84.12959737405762 319.8642841690084, 74.89859708034673 306.5887831752748 C65.66759678663584 293.3132821815412, 59.03719685887992 276.7885896311881, 53.05929901285475 261.3632450718261 C47.08140116682958 245.93790051246415, 40.32892710908866 230.94232772926, 39.031210004195714 214.03671581910308 C37.73349289930277 197.13110390894616, 41.49435833072087 176.45165909487906, 45.27299638349706 159.92957361088452 C49.05163443627325 143.40748812688997, 53.67926588019373 129.42997577699313, 61.70303832085284 114.9042029151358 C69.72681076151196 100.37843005327846, 81.8651397501176 84.63480343621708, 93.41563102745171 72.7749364397405 C104.96612230478581 60.915069443263924, 117.40995538679834 50.890184262856124, 131.0059859848575 43.74500093627634 C144.60201658291663 36.59981760969656, 167.2696907401119 31.259802714522227, 174.99181461580653 29.903836480261788 C182.71393849150115 28.54787024600135, 176.67715516503014 32.85908632986651, 177.3387292390252 35.6092035307137" fill="none" stroke="#9c6b12" stroke-width="2.6" stroke-linecap="round" stroke-linejoin="round"/><path d="M291.0815798629631 70.99610811152755 C303.6848612567363 78.31255434608707, 315.2965490989637 93.75476314753281, 323.81679470740676 107.0944746482296 C332.33704031584983 120.4341861489264, 337.9047809014857 135.57903121104655, 342.2030535136216 151.03437711570834 C346.50132612575754 166.48972302037012, 349.66801588973703 183.9898687886099, 349.6064303802222 199.82655007620036 C349.5448448707074 215.66323136379083, 346.09908766219155 230.91314288154015, 341.83354045653266 246.05446484125105 C337.56799325087377 261.19578680096197, 332.1731933839762 277.1308247337447, 324.0131471462687 290.6744818344657 C315.8531009085612 304.21813893518674, 304.6390745177348 317.0870197794418, 292.8732630302878 327.31640744557717 C281.10745154284075 337.54579511171255, 266.7272332487858 346.1714780873026, 253.4182782215866 352.05080783127784 C240.1093231943874 357.93013757525307, 227.2658390076576 361.44845240479003, 213.01953286709255 362.5923859094284 C198.7732267265275 363.73631941406677, 182.22318163303 362.30362701203404, 167.9404413781963 358.914408859108 C153.6577011233626 355.52519070618195, 140.20205437145498 349.98912036269246, 127.32309133809032 342.25707699187205 C114.44412830472568 334.52503362105165, 100.9157211551836 324.55562108057046, 90.66666317800845 312.52214863418556 C80.4176052008333 300.48867618780065, 72.17675891713365 284.67074557742023, 65.82874347503943 270.0562423135625 C59.48072803294521 255.44173904970478, 54.92892169847992 240.33281526560614, 52.5785705254431 224.83512905103913 C50.22821935240628 209.33744283647212, 49.348350629277626 192.99854376726427, 51.726636436818524 177.07012502616047 C54.10492224435942 161.14170628505667, 60.53429217739079 143.65077399619278, 66.84828537068847 129.2646166044164 C73.16227856398616 114.87845921264001, 79.80153385855753 102.3377318206066, 89.61059559660464 90.75318067550214 C99.41965733465175 79.16862953039767, 113.07772855762339 67.71779389167617, 125.70265579897108 59.75730973378958 C138.32758304031876 51.79682557590299, 151.39945879757425 46.643277264943215, 165.36015904469076 42.99027572818261 C179.32085929180727 39.337274191422004, 194.49211881532642 36.8132911841623, 209.4668572816701 37.839300513225965 C224.44159574801375 38.865309842289626, 238.72715493290332 40.82708224105437, 255.2085898427527 49.146331702564595 C271.6900247526021 57.46558116407482, 297.80486294752325 77.96492146650213, 308.3554667407665 87.75479728228733 C318.9060705340097 97.54467309807252, 320.35472125994056 105.87133303160877, 318.51221260221223 107.88558659727575 M152.03755271048453 44.26711381403862 C164.1642374883445 36.65465589236566, 181.1297107426204 36.683198295071385, 196.06116386962165 36.25931729089774 C210.9926169966229 35.8354362867241, 227.74963303522577 37.36922484603285, 241.62627147249205 41.72382778899674 C255.50290990975833 46.07843073196064, 267.2085585973092 53.2973910581709, 279.32099449321936 62.3869349486811 C291.4334303891295 71.4764788391913, 304.5223984843984 83.98507214494373, 314.30088684795305 96.26109113205793 C324.0793752115077 108.53711011917213, 332.5442117183977 121.52688064891544, 337.991924674547 136.0430488713663 C343.4396376306963 150.55921709381715, 345.6335471911663 167.81060464557012, 346.9871645848489 183.35810046676312 C348.34078197853154 198.90559628795612, 348.7526459436542 213.56540899330912, 346.1136290366426 229.3280237985242 C343.47461212963094 245.0906386037393, 337.9705432022704 263.2151089650234, 331.1530631427793 277.93378929805374 C324.33558308328816 292.6524696310841, 315.3642930649099 306.50443217385276, 305.20874867969593 317.6401057967064 C295.053204294482 328.77577941956, 283.5656798331084 337.3641420949178, 270.21979683149567 344.7478310351756 C256.87391382988295 352.1315199754334, 239.4610664569374 359.2318861808933, 225.1334506700196 361.94223943825307 C210.80583488310182 364.65259269561284, 198.5606372518599 363.2995656334239, 184.25410210998888 361.0099505793344 C169.94756696811785 358.7203355252448, 153.31045421943625 354.6645527657199, 139.29423981879347 348.20454911371564 C125.27802541815069 341.74454546171137, 110.87582756602599 332.62062545514834, 100.15681570613216 322.2499286673086 C89.43780384623834 311.8792318794689, 82.17704987302402 299.33428730516073, 74.98016865943052 285.98036838667724 C67.78328744583702 272.62644946819375, 61.20833335135983 257.91232611859937, 56.975528424571166 242.1264151564076 C52.7427234977825 226.34050419421587, 49.41783937324072 207.3761272377485, 49.58333909869853 191.26490261352683 C49.748838824156344 175.15367798930515, 52.4212611571885 160.06654354579177, 57.96852677731806 145.4590674110776 C63.51579239744762 130.85159127636342, 73.81399641808218 116.25929426971175, 82.86693281947589 103.62004580524173 C91.9198692208696 90.98079734077172, 100.83818664287297 79.27437191388047, 112.28614518568034 69.62357662425748 C123.73410372848771 59.97278133463449, 144.52462534547814 49.16366045183722, 151.55468407632014 45.7152740675038 C158.58474280716214 42.26688768317038, 153.52785839322777 46.574191427854146, 154.46649757073237 48.933258318256975" fill="none" stroke="#9c6b12" stroke-width="1.3" stroke-linecap="round" stroke-linejoin="round"/><path d="M341.58918101322143 319.5150415329208 C341.7276982081873 323.13390518736486, 345.7782461407991 338.5916665845052, 342.0353003641279 342.4223018848733 C338.2923545874567 346.2529371852414, 323.0034410201351 342.6242857045796, 319.1315063531941 342.4988533351295 M343.9433094541217 317.71421222841036 C344.0639783839791 320.82147083208497, 344.63169380899546 335.6432580907121, 341.0621423402863 340.04513302767725 C337.49259087157714 344.4470079646424, 326.30363713321947 343.7057603992279, 322.5260006418667 344.1254618502013" fill="none" stroke="#9c6b12" stroke-width="1.8" stroke-linecap="round" stroke-linejoin="round"/><path d="M80.51540964753173 341.2065572945704 C77.21265319090881 340.69111066878077, 61.983507596592986 343.88173387842306, 58.34400949091794 340.5224235031796 C54.704511385242895 337.1631131279361, 59.072261821118666 324.4660428525528, 58.67842101348146 321.0506950431095 M78.90008838739014 343.92420900029964 C75.50438469577901 343.5402822585003, 60.331474756413336 346.42460556644255, 56.92029674591976 342.1519096957033 C53.50911873542618 337.87921382496404, 58.63791420964442 321.73858937923444, 58.43302032442867 318.28803377586394" fill="none" stroke="#9c6b12" stroke-width="1.8" stroke-linecap="round" stroke-linejoin="round"/><path d="M56.58194388526813 80.50293345685482 C56.90898158892193 76.87058107162254, 53.489009194349315 63.154616365065436, 57.49543109232697 59.05583264686683 C61.50185299030462 54.95704892866823, 77.06481770067643 56.09042658523424, 80.62047527313405 55.910231147663204 M59.288572924084725 79.4476661728237 C60.283464422870566 75.20805860634144, 57.18279584579366 60.13356823489751, 60.63656362617218 56.40057388911028 C64.0903314065507 52.66757954332304, 77.00782636464358 57.29944494394922, 80.01117960635587 57.04970009810031" fill="none" stroke="#9c6b12" stroke-width="1.8" stroke-linecap="round" stroke-linejoin="round"/><path d="M321.5956177223698 56.939615222565315 C325.62704506550926 56.71542488975585, 339.20169559938125 53.359738993670234, 342.76556516835507 57.15595426517303 C346.3294347373289 60.952169536675825, 343.0907469955258 76.19054539648982, 342.9788351362128 79.71690685158208 M320.33279706014457 55.38742894877386 C324.41097922853635 55.19910836947416, 338.56800174244955 54.158171045314894, 342.1801429810437 58.50735055713623 C345.7922842196378 62.85653006895756, 342.0292119349344 78.06003558723813, 342.00564449170923 81.48250601970184" fill="none" stroke="#9c6b12" stroke-width="1.8" stroke-linecap="round" stroke-linejoin="round"/>
<g transform="translate(80,80)"><path d="M57.82798465486343 71.47265281327833 C61.250312630648345 69.33042502751775, 67.20583798678209 67.96612193670674, 71.28374991321786 69.16766795717028 C75.36166183965364 70.36921397763382, 79.54692313402518 74.931705108219, 82.2954562134781 78.68192893605958 C85.04398929293103 82.43215276390015, 88.0075587012562 87.2928403051481, 87.77494838993539 91.6690109242137 C87.54233807861458 96.04518154327928, 84.0633787532591 101.42496814314299, 80.8997943455532 104.93895265045316 C77.7362099378473 108.45293715776333, 73.08891982900143 112.25371213779076, 68.79344194369999 112.75291796807475 C64.49796405839855 113.25212379835875, 59.05284734496088 110.65995686916207, 55.1269270337446 107.93418763215715 C51.20100672252832 105.20841839515222, 46.416299151719414 101.14652109547879, 45.23792007640232 96.39830254604522 C44.05954100108522 91.65008399661164, 43.74478865528186 84.08408231251974, 48.056652581842016 79.44487633555573 C52.36851650840217 74.80567035859173, 65.76934491704489 69.37003899919236, 71.10910363576326 68.56306668426113 C76.44886235448163 67.7560943693299, 80.37388180852732 74.05006732626507, 80.0952048941522 74.60304244596833 M70.38098549623471 66.0157087378819 C73.93860187842783 66.90633953166964, 76.52449659269824 73.18025501047389, 79.29689754178784 76.78545512338036 C82.06929849087744 80.39065523628683, 86.41617489247847 83.42102019551892, 87.01539119077233 87.64690941532075 C87.6146074890662 91.87279863512258, 85.38228676287636 98.17343129888488, 82.89219533155105 102.14079044219136 C80.40210390022574 106.10814958549784, 76.18144657214637 110.2504439933129, 72.07484260282047 111.45106427515964 C67.96823863349456 112.65168455700638, 62.38822768415175 111.79818194993368, 58.25257151559562 109.34451213327182 C54.11691534703949 106.89084231660996, 49.34475302834696 100.95081717402535, 47.26090559148368 96.72904537518848 C45.1770581546204 92.50727357635161, 44.23862125029733 87.88818431280461, 45.749486894415924 84.01388134025063 C47.26035253853452 80.13957836769666, 52.262172605971585 76.18143722649386, 56.326099456195244 73.48322753986466 C60.3900263064189 70.78501785323546, 68.34623750687831 68.69565683972849, 70.13304799575788 67.82462322047543 C71.91985848463744 66.95358960122238, 67.2640313900316 68.16916547432837, 67.04696238947261 68.25702582434633" fill="none" stroke="#2b2118" stroke-width="2.6" stroke-linecap="round" stroke-linejoin="round"/><path d="M69.20651878481544 82.17531986443825 C70.6750539766787 83.03993637404682, 73.72598803484573 85.6942815920211, 74.2779405184423 87.55901090707135 C74.82989300203889 89.42374022212161, 73.33741268719334 91.63762143535699, 72.51823368639495 93.36369575473977 C71.69905468559656 95.08977007412254, 70.9506987769379 97.41996721723447, 69.36286651365197 97.91545682336798 C67.77503425036603 98.41094642950148, 64.49735116426695 97.0272499827227, 62.991240106679335 96.33663339154083 C61.485129049091725 95.64601680035896, 61.11574086635082 94.9372143124203, 60.32620016812629 93.7717572762768 C59.536659469901764 92.60630024013331, 58.37782770516436 90.8349767389104, 58.25399591733218 89.34389117467987 C58.13016412950001 87.85280561044934, 58.10064846414521 85.9869615457589, 59.58320944113325 84.82524389089362 C61.06577041812129 83.66352623602833, 64.93765091096522 82.18707211101587, 67.14936177926045 82.37358524548816 C69.36107264755567 82.56009837996045, 71.63860678820748 84.76878822819661, 72.85347465090462 85.94432269772737 C74.06834251360175 87.11985716725813, 74.7203928699243 89.14679212390098, 74.43856895544329 89.42679206267269 M65.36867594374914 80.6223302773351 C67.30308390540051 80.74310201820856, 70.21265064857624 84.30686071935172, 71.33636482420495 85.31061174883138 C72.46007899983366 86.31436277831104, 71.6423591684254 85.13639625530419, 72.1109609975214 86.64483645421306 C72.5795628266174 88.15327665312194, 74.56197839394547 92.82703799170943, 74.14797579878096 94.36125294228461 C73.73397320361646 95.89546789285978, 70.9447483498029 95.55967394128818, 69.62694542653438 95.85012615766416 C68.30914250326586 96.14057837404015, 67.83747049319017 95.98427487649259, 66.24115825916991 96.10396624054053 C64.64484602514965 96.22365760458847, 61.1304243375622 97.75342263586623, 60.04907202241285 96.56827434195182 C58.967719707263505 95.38312604803741, 59.85755819420763 91.38210869364002, 59.753044368273834 88.99307647705407 C59.64853054234004 86.60404426046813, 58.78352478442489 83.51179368755815, 59.4219890668101 82.2340810424361 C60.060453349195306 80.95636839731405, 62.58052575729888 81.51123088353431, 63.583830062585065 81.32680060632174 C64.58713436787126 81.14237032910917, 64.80184032217687 80.8191551968952, 65.44181489852723 81.12749937916071" fill="none" stroke="#2b2118" stroke-width="1.6" stroke-linecap="round" stroke-linejoin="round"/><path d="M86.81519441232085 109.04947713986039 C106.0345468274504 120.6393233630061, 119.78031315423549 133.70647056058047, 166.0070732794702 177.83427330628038 M88.8681390363723 109.13942472748458 C114.93714201059937 130.36276108242572, 140.98517614510655 153.25758979313076, 169.07283989973365 177.0548000436276" fill="none" stroke="#2b2118" stroke-width="2.6" stroke-linecap="round" stroke-linejoin="round"/><path d="M147.24335024854093 157.60294687429604 C151.19125669935113 157.66970008763764, 156.9439452231633 150.2992794342329, 163.69909570461803 143.5877286133045 M151.34633848642179 158.10875860344527 C154.9404021155162 153.40226169461735, 159.56464864919383 148.821412024286, 162.87177030090479 144.7016190476942" fill="none" stroke="#2b2118" stroke-width="2" stroke-linecap="round" stroke-linejoin="round"/><path d="M161.215532065928 166.14835440963506 C163.9138019463718 167.0911513675451, 164.1607819518745 161.6244809810519, 177.38500824123622 153.3328127130866 M159.0518754594028 167.0803008325398 C165.03185267072917 163.27120287021995, 172.98768168908356 158.32488154223563, 175.4477918975055 156.36268448904156" fill="none" stroke="#2b2118" stroke-width="2" stroke-linecap="round" stroke-linejoin="round"/><path d="M167.61570089273155 178.2977930445224 C168.63764761970194 173.6501421432793, 174.14818175569923 169.73274707867205, 181.4739757221192 164.68208241648972 M167.54374367091805 176.85073888506741 C175.25906846062838 170.88145507533102, 180.26224344657362 167.681369385086, 184.03526789639145 164.01662671174853" fill="none" stroke="#2b2118" stroke-width="2" stroke-linecap="round" stroke-linejoin="round"/></g>
</svg>